<svg xmlns="http://www.w3.org/2000/svg" viewBox="0 0 32 32">
  <defs>
    <linearGradient id="g" x1="0%" y1="0%" x2="100%" y2="100%">
      <stop offset="0%" style="stop-color:#FBBF24"/>
      <stop offset="100%" style="stop-color:#F59E0B"/>
    </linearGradient>
  </defs>
  <circle cx="16" cy="16" r="16" fill="url(#g)"/>
  <!-- lightbulb body -->
  <path d="M16 6c-4.4 0-8 3.1-8 7 0 2.5 1.5 4.7 3.8 6 .5.3.8.8 1 1.4l.2.6h6l.2-.6c.2-.6.5-1.1 1-1.4C22.5 17.7 24 15.5 24 13c0-3.9-3.6-7-8-7z" fill="white"/>
  <!-- filament -->
  <path d="M14 15c0 0 .8-2 2-2s2 2 2 2" fill="none" stroke="#F59E0B" stroke-width="1.2" stroke-linecap="round"/>
  <!-- bulb base -->
  <rect x="12.5" y="22" width="7" height="1.2" rx=".6" fill="white"/>
  <rect x="13" y="24" width="6" height="1.2" rx=".6" fill="white"/>
  <path d="M13.5 26 15 28h2l1.5-2z" fill="white"/>
</svg>
